<svg xmlns="http://www.w3.org/2000/svg" width="28" height="28" fill="none"><path fill="#000" stroke="#000" stroke-linecap="round" stroke-linejoin="round" d="m13.5 14-4 2.5v-5l4 2.5Z"/><path stroke="#000" stroke-linejoin="round" d="M11 3H7a2 2 0 0 0-2 2v18a2 2 0 0 0 2 2h8a2 2 0 0 0 2-2v-7"/><path stroke="#000" stroke-linecap="round" stroke-linejoin="round" d="M9 23h4M19 14a6 6 0 0 0-6-6"/><path stroke="#000" stroke-linecap="round" stroke-linejoin="round" d="M22 14a9 9 0 0 0-9-9"/><path stroke="#000" stroke-linecap="round" stroke-linejoin="round" d="M25 14c0-6.627-5.373-12-12-12"/></svg>