<svg xmlns="http://www.w3.org/2000/svg" width="28" height="28" fill="none"><g clip-path="url(#a)"><path stroke="#000" stroke-linecap="round" stroke-linejoin="round" d="M5 24h15"/><path fill="#000" d="M20.002 9h.5-.5ZM20 19h-.5.5Zm4 0h.5-.5Zm0-9h.5a.498.498 0 0 0-.036-.186L24 10Zm-1.536-5.186a.5.5 0 1 0-.928.372l.928-.372ZM18 7.5c.293 0 .5.022.673.074.163.05.316.134.487.293l.68-.734a2.21 2.21 0 0 0-.875-.515c-.311-.095-.633-.118-.965-.118v1Zm1.16.367c.278.258.342.575.342 1.133h1c0-.603-.055-1.304-.662-1.867l-.68.734ZM19.502 9 19.5 19h1l.002-10h-1ZM24.5 19v-9h-1v9h1Zm-.036-9.186-2-5-.928.372 2 5 .928-.372ZM22 20.5c-.413 0-.689-.102-.879-.229a1.256 1.256 0 0 1-.424-.495 1.958 1.958 0 0 1-.197-.77v-.008V19L20 19h-.5v.005a.265.265 0 0 0 0 .034l.005.082a2.957 2.957 0 0 0 .298 1.102c.154.31.394.634.763.88.373.249.847.397 1.434.397v-1Zm2-1.5h-.5v-.002.008l-.003.044a1.958 1.958 0 0 1-.195.726c-.094.191-.23.366-.423.495-.19.127-.466.229-.879.229v1c.587 0 1.061-.148 1.434-.396.369-.246.609-.571.763-.88a2.956 2.956 0 0 0 .303-1.21V19H24Z"/><rect width="7" height="4" x="9" y="6" stroke="#000" stroke-linecap="round" stroke-linejoin="round" rx="1"/><path stroke="#000" stroke-linecap="round" stroke-linejoin="round" d="M18 24V6a2 2 0 0 0-2-2H9a2 2 0 0 0-2 2v18"/></g><defs><clipPath id="a"><path fill="#fff" d="M0 0h28v28H0z"/></clipPath></defs></svg>