<svg xmlns="http://www.w3.org/2000/svg" width="28" height="28" fill="none"><path stroke="#000" stroke-linecap="round" stroke-miterlimit="10" d="M18.997 20v-.889a4.078 4.078 0 0 0-.988-2.83A3.703 3.703 0 0 0 15.41 15H12.59a3.71 3.71 0 0 0-2.597 1.283 4.086 4.086 0 0 0-.99 2.828V20M14 13a3 3 0 1 0 0-6 3 3 0 0 0 0 6ZM8 14.5a2 2 0 1 0 0-4 2 2 0 0 0 0 4Z"/><path stroke="#000" stroke-linecap="round" stroke-linejoin="round" d="M6.858 16h1.138-1.714a3.57 3.57 0 0 0-2.376 1.018 3.01 3.01 0 0 0-.903 2.261V20h4.063"/><path stroke="#000" stroke-linecap="round" stroke-miterlimit="10" d="M20 14.5a2 2 0 1 0 0-4 2 2 0 0 0 0 4Z"/><path stroke="#000" stroke-linecap="round" stroke-linejoin="round" d="M21.377 16h-1.374 1.915a3.256 3.256 0 0 1 2.232 1.018c.577.614.881 1.427.847 2.261V20h-3.815"/></svg>