<svg xmlns="http://www.w3.org/2000/svg" xmlns:xlink="http://www.w3.org/1999/xlink" xml:space="preserve" id="CC_1_" x="0" y="0" enable-background="new 0 0 75 75" version="1.1" viewBox="0 0 75 75"><style>.st0{fill:#101010}</style><path d="M70.5 66.4h-4.6c-1 0-1.9-.5-2.4-1.3-.7-1.1-1.2-2.2-1.4-3.5-.1-.6-.3-.6-.4-.6H12.6c-.1 0-.2.1-.3.1 0 .9-.2 1.7-.3 2.2l-.1.2c-.1 1.5-1.3 2.8-2.9 2.8H4.5c-1.2 0-2.2-.7-2.7-1.8-2.3-5.5-2.9-29 1.5-34.8.2-.3.2-.5.2-1.5 0 0-.1-.2-.2-.3C1.5 27 0 24.7.7 21.6c.1-.5.4-1 .8-1.4 1-1 2.7-1.6 4.5-1.6h1.1c.8 0 1.5.3 2.1.8.2.2.4.3.7.3.1-.1.5-.3.8-.6 3.9-8.8 6.1-10 7.7-10 3.3-.4 10.2-.4 19-.4 8.4 0 15.6 0 19.2.4.9.1 1.7.6 2.2 1.5.8.9 2.6 2.9 5.4 9.1.1.1.1.2.1.4.1 0 .8.1 1.2-.1.5-.7 1.5-1.4 3.5-1.4 2.6 0 4.4.9 5.1 2.4.6.9.7 2.1.5 3.2-.4 1.8-1.6 3.1-2.6 3.7-.4.4-.5.6-.5.6 0 .7 0 1.1.1 1.3l.1.1c4.5 5.7 3.9 28.8 1.6 34.8-.6.9-1.6 1.7-2.8 1.7zM12.6 59h49.1c1.2 0 2 .7 2.3 2.1.2 1.1.5 2 1.1 2.8.2.2.4.4.8.4h4.6c.4 0 .7-.2.8-.6C73.5 58.4 74 36 70 30.9l-.1-.1c-.4-.4-.4-1.2-.4-2.5 0-.7.4-1.3 1.2-2l.1-.1c.7-.4 1.5-1.4 1.8-2.5.1-.6 0-1.3-.3-1.8l-.1-.1c-.3-.8-1.6-1.2-3.3-1.2-.7 0-1.6.1-1.9.6l-.1.2-.2.1c-.5.3-1.2.5-1.9.5-1.6 0-2.2-.8-2.4-1.4v-.1c-2.8-6-4.5-7.9-5.2-8.7l-.2-.3c-.1-.3-.4-.5-.7-.5-3.5-.4-10.6-.4-18.9-.4-8.7 0-15.5 0-18.8.4-1.4 0-3.6 3.2-6.1 8.9l-.1.2c-.6.8-1.6 1.5-2.4 1.5-.9 0-1.6-.3-2.2-.9-.2-.2-.4-.3-.6-.3H6c-1.3 0-2.5.4-3.1 1-.1.1-.2.3-.2.4-.5 2.1.5 3.7 1.6 4.2l.1.1c.5.3 1.1 1.3 1.1 2 0 1 0 1.8-.6 2.7-4 5.2-3.3 28.1-1.3 32.9.1.3.5.5.8.5H9c.5 0 .9-.4.9-.9v-.1c0-.1 0-.2.1-.3v-.1c.1-.5.3-1.1.3-1.9 0-1 1.2-1.9 2.3-1.9zm51.6-39z" class="st0"/><path d="M60.2 28.8s-.1 0 0 0c-.2 0-11.8-.9-22.8-.9s-22.6.9-22.7.9c-.3 0-.7-.1-.9-.4-.2-.3-.3-.6-.2-.9.1-.4 2.8-8.8 6-13.2.3-.5.8-.7 1.4-.8 4.4-.3 28.4-.3 32.9 0 .6 0 1.1.3 1.4.8 3.1 4.4 5.8 12.9 6 13.2.1.3 0 .7-.2.9-.3.2-.6.4-.9.4zm-39-13.3c-2.2 3.2-4.3 8.6-5.2 11.2 3.5-.2 12.6-.8 21.4-.8s17.9.6 21.4.8c-.9-2.6-3-8-5.2-11.2-4.6-.3-27.8-.3-32.4 0zm32.5 0zm-32.6 0zm32.4-.1zm-32.3 0z" class="st0"/></svg>