<svg xmlns="http://www.w3.org/2000/svg" xmlns:xlink="http://www.w3.org/1999/xlink" xml:space="preserve" enable-background="new 0 0 75 75" viewBox="0 0 75 75"><path d="M37.5 75c-.4 0-.7-.2-.9-.5l-22-37.9c0-.1-.1-.1-.1-.2-1.6-3-2.5-6.9-2.5-10.9C12 11.4 23.4 0 37.5 0S63 11.4 63 25.5c0 3.9-.9 7.8-2.4 10.8 0 .1-.1.2-.1.2l-22.1 38c-.2.3-.5.5-.9.5zM16.4 35.8 37.5 72l21.2-36.3c0-.1 0-.1.1-.2 1.5-2.8 2.3-6.3 2.3-10C61 12.5 50.5 2 37.5 2 24.5 2 14 12.5 14 25.5c0 3.8.8 7.4 2.3 10.1.1.1.1.1.1.2z"/><path d="M37.5 37.4c-6.6 0-11.9-5.3-11.9-11.9s5.3-11.9 11.9-11.9 11.9 5.3 11.9 11.9-5.3 11.9-11.9 11.9zm0-21.8c-5.5 0-9.9 4.4-9.9 9.9s4.4 9.9 9.9 9.9 9.9-4.4 9.9-9.9-4.4-9.9-9.9-9.9z"/></svg>