<svg xmlns="http://www.w3.org/2000/svg" xmlns:xlink="http://www.w3.org/1999/xlink" xml:space="preserve" viewBox="0 0 75 75"><path fill="#101010" d="M37.5 75C16.822 75 0 58.178 0 37.5S16.822 0 37.5 0 75 16.822 75 37.5 58.178 75 37.5 75zm0-73C17.925 2 2 17.925 2 37.5S17.925 73 37.5 73 73 57.075 73 37.5 57.075 2 37.5 2z"/><path fill="#101010" d="M19.705 56.75a1 1 0 0 1-.707-1.707l35.59-35.587a1 1 0 1 1 1.414 1.414l-35.59 35.587a.997.997 0 0 1-.707.293zM25.09 32.417c-3.906 0-7.083-3.178-7.083-7.084s3.177-7.083 7.083-7.083 7.083 3.178 7.083 7.083-3.177 7.084-7.083 7.084zm0-12.167a5.089 5.089 0 0 0-5.083 5.083 5.089 5.089 0 0 0 5.083 5.084 5.089 5.089 0 0 0 5.083-5.084 5.089 5.089 0 0 0-5.083-5.083zM49.781 56.75c-3.906 0-7.084-3.178-7.084-7.083a7.092 7.092 0 0 1 7.084-7.084c3.906 0 7.083 3.178 7.083 7.084 0 3.905-3.177 7.083-7.083 7.083zm0-12.167a5.09 5.09 0 0 0-5.084 5.084 5.089 5.089 0 0 0 5.084 5.083 5.089 5.089 0 0 0 5.083-5.083 5.089 5.089 0 0 0-5.083-5.084z"/></svg>